<svg width="330" height="272" viewBox="0 0 330 272" fill="none" xmlns="http://www.w3.org/2000/svg">
<path fill-rule="evenodd" clip-rule="evenodd" d="M19.6635 107.263C30.4005 71.7746 66.2383 52.8629 98.8728 35.0675C127.755 19.3184 158.951 8.12924 191.423 13.6036C224.861 19.2408 253.608 38.3202 274.777 64.7223C298.198 93.9342 320.563 128.903 313.263 165.564C305.961 202.236 272.058 226.335 239.056 244.125C209.419 260.099 176.153 261.824 142.731 257.484C106.048 252.721 66.7077 247.263 43.3132 218.706C18.2582 188.123 8.23211 145.047 19.6635 107.263Z" fill="#F7F3F4"/>
<path opacity="0.2" fill-rule="evenodd" clip-rule="evenodd" d="M5.34366 104.445C17.1295 65.4899 56.468 44.7309 92.2902 25.1972C123.993 7.90966 158.237 -4.37247 193.881 1.63659C230.586 7.82451 262.14 28.7676 285.377 57.7488C311.086 89.8141 335.635 128.198 327.622 168.441C319.607 208.695 282.393 235.148 246.166 254.675C213.635 272.21 177.119 274.104 140.433 269.34C100.166 264.111 56.9832 258.12 31.3034 226.774C3.80103 193.204 -7.20441 145.92 5.34366 104.445Z" fill="#F7F3F4"/>
</svg>
